<svg xmlns="http://www.w3.org/2000/svg" viewBox="0 0 130.11 15.94"><defs><style>.cls-1{fill:#ccc;}</style></defs><title>portfolio-footer</title><g id="Layer_2" data-name="Layer 2"><g id="Layer_1-2" data-name="Layer 1"><path class="cls-1" d="M9,0a4.13,4.13,0,0,1,1.92,3.31v.34a5.17,5.17,0,0,1-2.52,4.5L6.56,9l-2-.22L.46,15.94,0,15.78l.88-2.64A25.81,25.81,0,0,0,5.26,6.26l.5-.2L6,6.61,5.07,8.18l1,.27a5.43,5.43,0,0,0,4.23-3.87,4.9,4.9,0,0,0,.06-.77A3.87,3.87,0,0,0,8.64.61L7.46.88a25.13,25.13,0,0,0-5.7,10.94l-.34.08A29.36,29.36,0,0,1,6.5.93L7.26.27,8,0Z"/><path class="cls-1" d="M11.33,9.54v.38l-1,1.38.08.54a4.51,4.51,0,0,0,3.53-1.62l.58.2v.38l-1.12,1.54-.27,1.56-.69-.33.19-1.51-2.14.55-.77-.08-.35-.35A3,3,0,0,1,11,9.38Z"/><path class="cls-1" d="M20.9,8.11l-.2,1.76-1.84,1.92.61.85,1.15.66-.11.57A2.86,2.86,0,0,1,18,12l.13-.6L20,9.62l.14-.82-.77.54-.11.61a29.86,29.86,0,0,1-4.19,3.76l-.61-.06.19-.74,5.68-5.15Z"/><path class="cls-1" d="M23.28,10.45,22.86,12l2.42-1.18h.61l.3.49v1l-.38.72-.07.93-.62-.16a1.23,1.23,0,0,1-.24-.7,1.54,1.54,0,0,1,.67-1.14l-.16-.27-3.26,1.5-.77-.19,1.38-2.61Z"/><path class="cls-1" d="M31.46,9.15l.14.72.38.43,0,.61-1.31,1.92.82.19,2.68-.68-.3.49-2.46,1-1.24-.27-.27-.34v-.76h-.25l-2.31,1.45h-.65l-.47-.57.19-.88a10.32,10.32,0,0,1,4.26-3.7Zm-2,1.07-2.35,2.53.08.19,1.7-.72L31,10.64l-.08-.88-.41-.22Z"/><path class="cls-1" d="M45.31,2.74l.15,0h.12c.82,0,1.28.54,1.38,1.6l-.23.63h-.54l-.08-1-.72-.42a10.45,10.45,0,0,0-6,4.87l-.16,2.19,1.23,1.61a8.33,8.33,0,0,0,3.73.93A8.38,8.38,0,0,0,48,12.14l.3.16-1,.88-2.11.53a5.91,5.91,0,0,1-1.38.16,6.21,6.21,0,0,1-4.68-2,3.89,3.89,0,0,1-.77-2.35l.77-2.11A13.09,13.09,0,0,1,45.31,2.74Z"/><path class="cls-1" d="M55.82,3,50,11.34l.16.2,1.15-.82h.88l1.24,1.58,1-.08.08.34-.55.35H52.75L52,11.68l-.57-.22L48.3,13.87l-.46-.3V13A88,88,0,0,1,55.38,2.77Z"/><path class="cls-1" d="M59.68,9.15l.14.72.39.43,0,.61-1.31,1.92.82.19,2.69-.68-.31.49-2.46,1-1.23-.27-.28-.34v-.76h-.25l-2.31,1.45h-.65l-.47-.57.2-.88a10.29,10.29,0,0,1,4.25-3.7Zm-2,1.07-2.36,2.53.08.19,1.7-.72,2.14-1.58-.08-.88-.41-.22Z"/><path class="cls-1" d="M63.74,10.45,63.33,12l2.41-1.18h.61l.3.49v1l-.38.72-.06.93-.63-.16a1.23,1.23,0,0,1-.24-.7A1.57,1.57,0,0,1,66,11.87l-.16-.27-3.26,1.5-.77-.19L63.2,10.3Z"/><path class="cls-1" d="M76.91,7.34,76.64,8a6.72,6.72,0,0,0-3.19,4.5l.31.49,1.73.2-.08.35-1.08.27-.11,0h-.11a1.3,1.3,0,0,1-1.34-1L73,11.1l-4.8,2.55-1,.14-.47-.49.16-.8,1.88-1.59,2.08-1h.68l1,.74a14,14,0,0,0,3.92-3.54Zm-7,3.68-2.36,1.73.16.19,2.23-.88,1.65-1-.19-.33-.47,0Z"/><path class="cls-1" d="M82.25,8.11l-.19,1.76-1.84,1.92.61.85L82,13.3l-.11.57A2.85,2.85,0,0,1,79.33,12l.12-.6,1.92-1.76.15-.82-.77.54-.11.61a29.86,29.86,0,0,1-4.19,3.76l-.61-.06.19-.74,5.68-5.15Z"/><path class="cls-1" d="M88,9.15l.15.72.38.43,0,.61-1.31,1.92L88,13l2.69-.68-.3.49-2.47,1-1.23-.27-.27-.34v-.76h-.26l-2.3,1.45h-.66l-.46-.57.19-.88a10.32,10.32,0,0,1,4.26-3.7Zm-2,1.07L83.6,12.75l.08.19,1.69-.72,2.15-1.58-.08-.88L87,9.54Z"/><path class="cls-1" d="M96.54,4.21l.34.33V5l-1.35-.35-1.1.7-.11.5,2.11,2.19.88,2.11v.34a3.37,3.37,0,0,1-1.42,2.8l-1.32.46-1.72-.11L91.63,13l-.9,0-.6-1,.16-.54h.44a4.13,4.13,0,0,0,3,1.47,4.33,4.33,0,0,0,1.79-.43,3,3,0,0,0,1-2.16A3.14,3.14,0,0,0,96.16,9L93.39,5.89l.3-.88,1.7-1Z"/><path class="cls-1" d="M102.65,8.91l.45.58V10a8.59,8.59,0,0,1-4.64,2.27l.35.69.77.31,3.27-.39v.47l-2,.57H99.31l-.85-.3-1.15-1.7.16-.53H98a4.49,4.49,0,0,1,3.76-2.43Zm-1.85,1-1.65,1v.08l1.84-.49,1.39-.82-.49-.14Z"/><path class="cls-1" d="M108.51,7.23l-.34,1-3.76,4.37,5.11-3.1h.41l.24.33-.24.43-1,.28-1.56,1.07.08.65,1.21,1.08-.19.41-1-.22-.83-1.15-.39-.12-2.68,1.57-.36-.08-.19-.41.35-.88L108,7Z"/><path class="cls-1" d="M117.69,3l-5.87,8.38.16.2,1.15-.82H114l1.24,1.58,1-.08.08.34-.55.35h-1.12l-.72-1.23-.57-.22-3.16,2.41-.46-.3V13a88,88,0,0,1,7.54-10.25Z"/><path class="cls-1" d="M121.55,9.15l.14.72.39.43,0,.61-1.32,1.92.82.19,2.69-.68-.31.49-2.46,1-1.23-.27-.27-.34v-.76h-.26l-2.3,1.45h-.66l-.46-.57.19-.88a10.35,10.35,0,0,1,4.25-3.7Zm-2,1.07-2.35,2.53.08.19,1.69-.72,2.15-1.58L121,9.76l-.42-.22Z"/><path class="cls-1" d="M130.11,8.11l-.19,1.76-1.84,1.92.61.85,1.15.66-.11.57A2.87,2.87,0,0,1,127.18,12l.13-.6,1.92-1.76.14-.82-.76.54-.12.61a29.31,29.31,0,0,1-4.19,3.76l-.61-.06.2-.74,5.68-5.15Z"/></g></g></svg>